<svg xmlns:dc="http://purl.org/dc/elements/1.1/" xmlns:cc="http://creativecommons.org/ns#" xmlns:rdf="http://www.w3.org/1999/02/22-rdf-syntax-ns#" xmlns:svg="http://www.w3.org/2000/svg" xmlns="http://www.w3.org/2000/svg" xmlns:xlink="http://www.w3.org/1999/xlink" id="svg731071" viewBox="0 0 1024 768" height="768px" width="1024px" version="1.1">
  <metadata id="metadata731077">
    <rdf:rdf>
      <cc:work rdf:about="">
        <dc:format>image/svg+xml</dc:format>
        <dc:type rdf:resource="http://purl.org/dc/dcmitype/StillImage"></dc:type>
      </cc:work>
    </rdf:rdf>
  </metadata>
  <defs id="defs731075"></defs>
  <linearGradient spreadMethod="pad" y2="30%" x2="-10%" y1="120%" x1="30%" id="3d_gradient2-logo-407a06c9-32e9-4b18-845c-6bfd9c77cbe2">
    <stop id="stop731052" stop-opacity="1" stop-color="#ffffff" offset="0%"></stop>
    <stop id="stop731054" stop-opacity="1" stop-color="#000000" offset="100%"></stop>
  </linearGradient>
  <linearGradient gradientTransform="rotate(-30)" spreadMethod="pad" y2="30%" x2="-10%" y1="120%" x1="30%" id="3d_gradient3-logo-407a06c9-32e9-4b18-845c-6bfd9c77cbe2">
    <stop id="stop731057" stop-opacity="1" stop-color="#ffffff" offset="0%"></stop>
    <stop id="stop731059" stop-opacity="1" stop-color="#cccccc" offset="50%"></stop>
    <stop id="stop731061" stop-opacity="1" stop-color="#000000" offset="100%"></stop>
  </linearGradient>
  <g id="logo-group">
    <image xlink:href="" id="container" x="272" y="144" width="480" height="480" transform="translate(0 0)" style="display: none;"></image>
    <g id="logo-center" transform="translate(0 0)">
      <image xlink:href="" id="icon_container" x="0" y="0" style="display: none;"></image>
      <g id="slogan" style="font-style:normal;font-weight:400;font-size:32px;line-height:1;font-family:'Maven Pro';font-variant-ligatures:none;text-align:center;text-anchor:middle" transform="translate(0 0)"></g>
      <g id="title" style="font-style:normal;font-weight:normal;font-size:72px;line-height:1;font-family:'Brandmark Sans 41';font-variant-ligatures:normal;text-align:center;text-anchor:middle" transform="translate(0 0)">
 <path d="M0 1125 l0 -1125 1125 0 1125 0 0 1125 0 1125 -1125 0 -1125 0 0
-1125z m1588 1099 c108 -45 158 -169 120 -295 -43 -146 -259 -231 -401 -158
-44 23 -87 74 -103 122 -42 126 26 268 156 326 56 26 173 28 228 5z m-228
-615 c92 -20 160 -107 160 -204 0 -16 -7 -58 -15 -92 -13 -55 -165 -462 -285
-762 -48 -121 -72 -205 -63 -227 3 -8 14 -19 24 -25 35 -18 89 18 224 151 72
72 138 130 146 130 23 0 39 -21 39 -51 0 -61 -176 -247 -335 -354 -158 -106
-303 -159 -436 -158 -169 0 -237 84 -209 255 20 120 73 270 241 676 87 212
159 391 159 399 0 7 -9 22 -19 32 -16 16 -26 18 -51 11 -56 -16 -96 -48 -212
-171 -92 -96 -120 -120 -138 -117 -83 12 -24 117 161 284 133 120 268 192 414
219 90 17 132 18 195 4z"/>
<path d="M1365 2186 c-59 -27 -118 -88 -135 -141 -20 -61 -7 -150 27 -194 44
-54 85 -71 173 -71 159 0 259 90 260 232 0 65 -12 103 -43 137 -58 63 -189 81
-282 37z"/>
<path d="M1120 1564 c-139 -37 -270 -119 -406 -252 -115 -114 -161 -182 -122
-182 7 0 69 58 138 129 121 125 155 151 212 165 39 9 88 -34 88 -79 0 -20 -42
-135 -101 -277 -259 -625 -291 -720 -293 -860 -1 -68 2 -79 24 -103 38 -41 80
-55 169 -55 97 0 182 25 304 87 145 75 333 232 398 332 28 43 38 81 21 81 -4
0 -61 -54 -127 -120 -129 -130 -162 -156 -213 -165 -27 -4 -37 0 -58 22 -23
24 -25 34 -21 78 4 39 99 305 146 410 22 48 180 474 191 515 7 25 12 79 11
120 -2 86 -15 112 -77 147 -33 19 -53 23 -134 22 -52 0 -120 -7 -150 -15z"/>
</g>
</svg>
